<svg width="130" height="130" viewBox="0 0 130 130" fill="none" xmlns="http://www.w3.org/2000/svg">
<g clip-path="url(#clip0)">
<path d="M65 128.621C40.7924 128.621 19.563 112.718 13.8864 90.5864C6.20455 90.4485 0 84.1573 0 76.444C0 68.644 6.34636 62.2937 14.1503 62.2937H15.3636C22.75 42.2973 42.5139 28.9624 65.0039 28.9624C87.4939 28.9624 107.258 42.2973 114.644 62.2937H115.862C123.658 62.2937 130.008 68.64 130.008 76.444C130.008 84.1573 123.803 90.4485 116.125 90.5864C110.441 112.718 89.2076 128.621 65 128.621ZM14.1503 66.2331C8.52091 66.2331 3.93939 70.8185 3.93939 76.444C3.93939 82.0694 8.52091 86.6509 14.1503 86.6509H15.4424C16.3642 86.6509 17.1679 87.2931 17.3648 88.1991C22.037 109.338 42.0688 124.686 65 124.686C87.9312 124.686 107.967 109.338 112.639 88.1991C112.84 87.297 113.64 86.6509 114.562 86.6509H115.854C121.483 86.6509 126.061 82.0734 126.061 76.444C126.061 70.8146 121.483 66.2331 115.854 66.2331H113.246C112.399 66.2331 111.65 65.6934 111.378 64.8897C104.934 45.76 86.2964 32.9018 65 32.9018C43.7036 32.9018 25.0624 45.76 18.6215 64.8897C18.3536 65.6934 17.6012 66.2331 16.7542 66.2331H14.1503Z" fill="#004B9D"/>
<path d="M81.5059 88.8018C84.1341 88.8018 86.2646 86.6713 86.2646 84.0431C86.2646 81.4149 84.1341 79.2843 81.5059 79.2843C78.8777 79.2843 76.7471 81.4149 76.7471 84.0431C76.7471 86.6713 78.8777 88.8018 81.5059 88.8018Z" fill="#004B9D"/>
<path d="M50.3101 88.8018C52.9383 88.8018 55.0688 86.6713 55.0688 84.0431C55.0688 81.4149 52.9383 79.2843 50.3101 79.2843C47.6819 79.2843 45.5513 81.4149 45.5513 84.0431C45.5513 86.6713 47.6819 88.8018 50.3101 88.8018Z" fill="#004B9D"/>
<path d="M64.996 109.791C60.1781 109.791 55.3681 108.471 51.0781 105.828L50.302 105.351C49.3802 104.776 49.0887 103.567 49.6599 102.641C50.235 101.715 51.4484 101.435 52.3702 101.999L53.1423 102.475C60.4499 106.978 69.5341 106.982 76.8614 102.472L77.6296 101.995C78.5514 101.432 79.7687 101.711 80.3399 102.637C80.9111 103.563 80.6196 104.776 79.6978 105.347L78.9256 105.824C74.6278 108.467 69.8099 109.791 64.996 109.791Z" fill="#004B9D"/>
<path d="M69.3327 33.1579C59.7206 33.1579 51.897 25.3382 51.897 15.7221C51.897 7.81182 58.33 1.37485 66.2403 1.37485C72.7836 1.37485 78.1097 6.70091 78.1097 13.2442C78.1097 18.7003 73.6739 23.1361 68.2179 23.1361C63.6403 23.1361 59.9176 19.4094 59.9176 14.8318C59.9176 13.7445 60.8 12.8621 61.8873 12.8621C62.9745 12.8621 63.857 13.7445 63.857 14.8318C63.857 17.2388 65.8148 19.1967 68.2179 19.1967C71.4994 19.1967 74.1703 16.5258 74.1703 13.2442C74.1703 8.87545 70.613 5.31424 66.2403 5.31424C60.5045 5.31424 55.8364 9.98242 55.8364 15.7221C55.8364 23.1636 61.8912 29.2185 69.3327 29.2185C70.42 29.2185 71.3024 30.1009 71.3024 31.1882C71.3024 32.2755 70.42 33.1579 69.3327 33.1579Z" fill="#004B9D"/>
</g>
<defs>
<clipPath id="clip0">
<rect width="130" height="130" fill="white"/>
</clipPath>
</defs>
</svg>
