<svg width="127" height="127" viewBox="0 0 127 127" fill="none" xmlns="http://www.w3.org/2000/svg">
<path d="M63.5 119.865C39.8511 119.865 19.1116 104.329 13.5659 82.7078C6.06136 82.5731 0 76.4232 0 68.8879C0 61.2679 6.19991 55.0641 13.8238 55.0641H15.0091C18.4112 45.9047 24.7842 37.7382 33.0739 31.954C33.9321 31.3536 35.1367 31.5537 35.7524 32.4312C36.3605 33.3048 36.1488 34.5017 35.2752 35.1097C27.2627 40.7016 21.1936 48.6872 18.1918 57.6041C17.9301 58.3854 17.195 58.9126 16.3676 58.9126H13.8238C8.32427 58.9126 3.84848 63.3884 3.84848 68.8879C3.84848 74.3874 8.32427 78.8631 13.8238 78.8631H15.0861C15.9866 78.8631 16.7717 79.4904 16.9641 80.3756C21.5284 101.027 41.098 116.02 63.5 116.02C85.902 116.02 105.475 101.027 110.04 80.3756C110.236 79.4943 111.017 78.8631 111.918 78.8631H113.18C118.68 78.8631 123.152 74.3874 123.152 68.8879C123.152 63.3884 118.68 58.9126 113.18 58.9126H110.632C109.805 58.9126 109.074 58.3854 108.808 57.6003C105.779 48.6141 99.9144 40.8671 91.8595 35.2059C90.9859 34.594 90.7819 33.3933 91.39 32.5274C92.0057 31.6576 93.2065 31.4498 94.0685 32.0579C102.412 37.9191 108.585 45.8547 111.991 55.068H113.18C120.796 55.068 127 61.2679 127 68.8917C127 76.427 120.939 82.5769 113.438 82.7116C107.892 104.329 87.1489 119.865 63.5 119.865Z" fill="#9E0085"/>
<path d="M79.625 80.9606C82.1926 80.9606 84.274 78.8792 84.274 76.3116C84.274 73.7441 82.1926 71.6627 79.625 71.6627C77.0575 71.6627 74.9761 73.7441 74.9761 76.3116C74.9761 78.8792 77.0575 80.9606 79.625 80.9606Z" fill="#9E0085"/>
<path d="M49.149 80.9606C51.7165 80.9606 53.7979 78.8792 53.7979 76.3116C53.7979 73.7441 51.7165 71.6627 49.149 71.6627C46.5814 71.6627 44.5 73.7441 44.5 76.3116C44.5 78.8792 46.5814 80.9606 49.149 80.9606Z" fill="#9E0085"/>
<path d="M63.4998 101.469C58.7931 101.469 54.0941 100.176 49.8993 97.5937L49.1488 97.1357C48.2444 96.5777 47.9558 95.3962 48.51 94.488C49.0719 93.5759 50.2572 93.2988 51.1577 93.8491L51.912 94.3109C59.0664 98.7175 67.941 98.7136 75.0876 94.3148L75.8381 93.8491C76.7386 93.2988 77.9278 93.5682 78.4858 94.4764C79.0438 95.3808 78.7591 96.5661 77.8585 97.1242L77.1042 97.5898C72.9055 100.176 68.2027 101.469 63.4998 101.469Z" fill="#9E0085"/>
<path d="M63.5 33.5665C58.4585 33.5665 54.3599 29.4678 54.3599 24.4263C54.3599 19.3848 58.4585 15.2862 63.5 15.2862C68.5415 15.2862 72.6402 19.3848 72.6402 24.4263C72.6402 29.4678 68.5415 33.5665 63.5 33.5665ZM63.5 19.1347C60.5829 19.1347 58.2083 21.5092 58.2083 24.4263C58.2083 27.3435 60.5829 29.718 63.5 29.718C66.4172 29.718 68.7917 27.3435 68.7917 24.4263C68.7917 21.5092 66.4172 19.1347 63.5 19.1347Z" fill="#9E0085"/>
<path d="M85.536 41.7214C84.4045 41.7214 83.2654 41.5098 82.1801 41.0826L62.7953 33.4318C61.8062 33.0392 61.3213 31.9232 61.7139 30.938C62.1026 29.9489 63.2186 29.4563 64.2077 29.8565L83.5925 37.5073C85.255 38.1577 87.0407 37.9576 88.5109 36.957C89.981 35.9564 90.8276 34.3593 90.8276 32.5813V16.2752C90.8276 14.4934 89.981 12.9001 88.5109 11.8957C87.0369 10.8951 85.2435 10.6988 83.5925 11.353L64.2077 19C63.2148 19.4002 62.0987 18.9076 61.7139 17.9185C61.3213 16.9295 61.8062 15.8096 62.7953 15.4247L82.1801 7.77779C84.9933 6.66942 88.1722 7.01579 90.6737 8.71682C93.1791 10.4217 94.6761 13.2503 94.6761 16.2791V32.5851C94.6761 35.6139 93.1791 38.4387 90.6775 40.1435C89.1382 41.1865 87.3409 41.7214 85.536 41.7214Z" fill="#9E0085"/>
<path d="M41.4634 41.7214C39.6546 41.7214 37.8574 41.1826 36.318 40.1358C33.8165 38.4348 32.3232 35.61 32.3232 32.5813V16.2752C32.3232 13.2465 33.8203 10.4217 36.3218 8.71681C38.831 7.01194 42.0099 6.66557 44.8231 7.77394L64.2041 15.4209C65.1932 15.8134 65.6781 16.9295 65.2855 17.9147C64.8968 18.9038 63.7769 19.3964 62.7917 18.9961L43.4107 11.353C41.7482 10.7026 39.9625 10.8989 38.4885 11.8995C37.0184 12.9001 36.1717 14.4934 36.1717 16.2752V32.5813C36.1717 34.3593 37.0145 35.9525 38.4847 36.957C39.9586 37.9576 41.7559 38.1539 43.4107 37.5073L62.7917 29.8565C63.7808 29.4563 64.9007 29.9489 65.2855 30.938C65.6781 31.927 65.1932 33.0431 64.2041 33.4318L44.8231 41.0826C43.7378 41.5136 42.5987 41.7214 41.4634 41.7214Z" fill="#9E0085"/>
</svg>
